<svg width="34" height="48" viewBox="0 0 34 48" fill="none" xmlns="http://www.w3.org/2000/svg">
<path d="M24.0911 41.4804C25.0272 42.1345 25.9632 42.7885 26.8992 43.4427C27.0259 43.5312 27.9481 43.9353 27.9008 43.5238C27.7459 42.1778 27.5909 40.8317 27.4361 39.4857C28.3111 38.9639 29.1862 38.4419 30.0614 37.9201C31.0101 38.5831 31.9588 39.246 32.9075 39.909C33.0594 40.0152 34.0391 40.1435 33.9988 39.793C33.8473 38.4764 33.6957 37.1597 33.5442 35.8432C33.5526 35.8382 33.561 35.8331 33.5695 35.8281C33.6524 35.7786 33.631 35.7087 33.5723 35.6407C33.5717 35.6398 33.5717 35.6392 33.5712 35.6382C32.442 33.7448 31.313 31.8514 30.1839 29.958C30.0291 29.6985 29.4153 29.5124 29.1518 29.6695C28.4121 30.1105 27.6725 30.5516 26.9329 30.9928C26.4152 25.6523 24.891 20.4329 22.167 15.7995C22.3937 15.6819 22.617 15.5578 22.8237 15.4105C22.9252 15.3381 22.8278 15.1687 22.7252 15.242C22.5209 15.3877 22.2956 15.5096 22.0634 15.6241C21.9441 15.4241 21.8234 15.2247 21.6995 15.027C21.592 14.8553 21.481 14.6861 21.3702 14.5167C21.6814 14.3815 21.9966 14.255 22.3032 14.1094C22.4168 14.0554 22.3177 13.8872 22.2046 13.9409C21.8952 14.0878 21.5793 14.2183 21.266 14.3552C18.9077 10.7931 15.8484 7.73664 12.3616 5.27277C9.8036 3.46521 7.00824 1.97326 4.07714 0.867317C3.23689 0.550263 2.38032 0.238714 1.50551 0.0284282C1.26652 -0.0289718 0.581874 -0.02852 0.533228 0.313263C-0.356111 6.55669 -0.226962 13.0025 1.64025 19.0628C2.95098 23.3169 5.13019 27.2931 8.06319 30.6447C9.99349 32.8504 12.2496 34.794 14.7411 36.3412C15.2753 36.6729 15.8246 37.0008 16.3937 37.2779C15.3061 37.9265 14.2183 38.5752 13.1307 39.2238C13.0521 39.2707 13.0962 39.3586 13.129 39.4137C14.2581 41.3071 15.3872 43.2005 16.5163 45.0938C16.6209 45.2693 16.9352 45.4107 17.2094 45.4358C18.2035 46.1305 19.1976 46.8252 20.1917 47.5199C20.3546 47.6337 21.3161 47.6981 21.2763 47.3521C21.1258 46.0443 20.9753 44.7364 20.8248 43.4287C21.9136 42.779 23.0024 42.1296 24.0911 41.4804ZM26.71 42.6255C26.375 42.3914 26.0399 42.1572 25.7049 41.9231C25.9332 41.8229 26.1676 41.7399 26.4176 41.7067C26.5404 41.6904 26.542 41.495 26.4176 41.5116C26.0992 41.5539 25.8072 41.6641 25.5209 41.7945C25.4043 41.713 25.2878 41.6316 25.1712 41.5501C25.27 41.3862 25.6702 41.3054 25.8069 41.2669C26.0371 41.2022 26.2731 41.1573 26.5086 41.1177C26.5194 41.1159 26.5271 41.1114 26.5353 41.1073C26.5935 41.6134 26.6517 42.1194 26.71 42.6255ZM26.5158 40.9387C26.4986 40.9306 26.4794 40.9258 26.4566 40.9295C26.1121 40.9873 25.7678 41.059 25.4392 41.1801C25.2888 41.2355 25.1135 41.3119 25.0193 41.4441C24.8862 41.3511 24.7531 41.2581 24.62 41.1651C24.933 40.9785 25.246 40.7918 25.559 40.6052C25.8455 40.4343 26.132 40.2635 26.4185 40.0926C26.4509 40.3746 26.4834 40.6566 26.5158 40.9387ZM32.7178 38.8351C32.3179 38.5557 31.918 38.2762 31.5181 37.9967C31.7151 37.8944 31.9278 37.8161 32.1267 37.7249C32.241 37.6725 32.1418 37.5043 32.0282 37.5564C31.8006 37.6608 31.5591 37.7491 31.3405 37.8725C31.3245 37.8614 31.3086 37.8503 31.2927 37.8392C31.3225 37.8113 31.3386 37.768 31.3161 37.7216C31.207 37.497 32.2116 37.2126 32.3637 37.1493C32.4781 37.1016 32.428 36.9127 32.3118 36.9611C32.0443 37.0726 31.0632 37.2866 31.1162 37.7159C31.0069 37.6395 30.8976 37.5631 30.7883 37.4867C31.3418 37.1567 31.8953 36.8265 32.4488 36.4965C32.5384 37.276 32.6281 38.0556 32.7178 38.8351ZM20.9986 27.3124C20.9267 27.4182 20.8507 27.5206 20.773 27.6218C20.5039 27.479 20.2805 27.2458 20.0896 26.9674C20.0886 26.9659 20.0877 26.9644 20.0866 26.9628C20.2543 26.8478 20.4444 26.7694 20.6534 26.7401C20.7776 26.7227 20.7246 26.5346 20.6015 26.5519C20.3758 26.5836 20.1654 26.6714 19.9801 26.798C19.8711 26.6204 19.7736 26.4352 19.6748 26.2524C19.5082 25.9441 19.1982 25.5778 19.2623 25.2073C19.3593 24.6463 20.4124 24.6372 20.8183 24.6046C21.014 24.5888 21.2072 24.5675 21.3998 24.5422C21.5221 24.6612 21.6326 24.7522 21.6841 24.7787C21.796 24.836 21.8947 24.6676 21.7827 24.6102C21.7321 24.5842 21.6843 24.5483 21.6387 24.5079C21.8143 24.4808 21.9897 24.4507 22.1657 24.4143C22.2019 24.4068 22.2387 24.3988 22.2754 24.3909C22.415 24.5725 22.5558 24.7532 22.69 24.9389C22.7629 25.0399 22.9323 24.9427 22.8585 24.8405C22.7371 24.6724 22.6103 24.5086 22.4838 24.3444C23.124 24.1947 23.8023 23.9709 24.3165 23.5602C24.618 24.5724 24.8744 25.5981 25.0901 26.6326C24.6401 26.8735 24.0736 26.9522 23.6095 27.1256C22.9343 27.3776 22.27 27.6784 21.5472 27.7627C21.3297 27.788 21.1342 27.7636 20.9567 27.7021C21.029 27.6069 21.0997 27.5103 21.167 27.4112C21.238 27.3064 21.0688 27.209 20.9986 27.3124ZM13.0639 6.89287C12.13 7.72373 11.1034 8.46461 10.0797 9.17344C7.43775 11.0028 4.59401 12.5427 1.62581 13.7737C1.54991 13.283 1.48511 12.7911 1.42834 12.2982C1.6121 12.182 1.90352 12.0754 1.98934 12.0364C2.45206 11.8261 2.9313 11.6508 3.409 11.4779C4.18652 11.1966 4.9811 10.9606 5.75537 10.6712C5.87215 10.6276 5.82161 10.4389 5.70347 10.483C4.83462 10.8078 3.94329 11.0727 3.07255 11.3936C2.58681 11.5727 2.10054 11.7591 1.63601 11.9884C1.57247 12.0198 1.4889 12.058 1.40596 12.1039C1.35659 11.6555 1.31463 11.2065 1.28042 10.7568C1.31156 10.7474 1.34206 10.7378 1.3713 10.7274C1.68655 10.6157 2.00216 10.5052 2.3194 10.3991C2.95414 10.1871 3.5988 10.0029 4.25908 9.89049C4.383 9.86937 4.33029 9.68129 4.20719 9.70231C3.50413 9.82208 2.82228 10.0256 2.14684 10.2513C1.85207 10.3498 1.5593 10.4539 1.26643 10.558C1.24576 10.2673 1.22798 9.9765 1.21336 9.68544C1.5037 9.52001 1.79007 9.34772 2.07048 9.16505C2.17554 9.09664 2.07779 8.9276 1.97202 8.99655C1.72004 9.16072 1.46273 9.3155 1.20271 9.46559C1.14333 8.14981 1.14297 6.83114 1.19757 5.5141C1.44612 5.61284 1.69161 5.72123 1.92915 5.79857C2.51921 5.99063 3.11695 6.15895 3.71622 6.3195C4.91566 6.64071 6.12675 6.91661 7.32989 7.22319C7.45191 7.25433 7.50363 7.06607 7.38179 7.03502C6.17855 6.72835 4.96846 6.44947 3.76811 6.13133C3.16821 5.97231 2.5721 5.79966 1.98095 5.6104C1.72608 5.52881 1.46823 5.41591 1.20741 5.31446C1.21517 5.14344 1.22338 4.9725 1.23295 4.80156C1.38746 4.83514 1.54161 4.87079 1.69558 4.90698C2.21714 5.02954 2.73744 5.15779 3.25756 5.2864C4.09528 5.49361 4.93615 5.69415 5.76854 5.92213C5.89011 5.95543 5.94164 5.76717 5.82043 5.73395C4.94075 5.49307 4.05195 5.2817 3.16659 5.06293C2.64322 4.9336 2.11949 4.80526 1.59431 4.68297C1.53042 4.66808 1.38628 4.6151 1.24531 4.58C1.26544 4.24715 1.28936 3.91466 1.31589 3.58236C1.55749 3.61322 1.80334 3.62486 2.04702 3.63578C2.41407 3.72234 2.77896 3.82279 3.13717 3.88921C4.02425 4.05374 4.91494 4.1976 5.80437 4.3485C6.69281 4.49913 7.58125 4.655 8.46174 4.84732C9.32581 5.03613 10.1613 5.33324 11.038 5.46681C11.0712 5.47186 11.0986 5.4613 11.1195 5.44361C11.7839 5.90453 12.4322 6.38846 13.0639 6.89287ZM1.58484 1.01849C1.58384 1.01849 1.58285 1.0184 1.58186 1.0184C1.58195 1.0175 1.58213 1.0165 1.58222 1.0156C1.58303 1.0165 1.58384 1.01759 1.58484 1.01849ZM1.45722 2.07904C1.46552 2.00232 1.47392 1.9257 1.48249 1.84898C1.77003 1.91857 2.06055 1.96676 2.35288 2.00304C3.36821 2.17145 4.39256 2.30394 5.37766 2.59193C4.08435 2.34501 2.76623 2.21261 1.45722 2.07904ZM4.98723 2.71838C3.93869 2.69744 2.87869 2.57253 1.86561 2.31613C2.90865 2.42335 3.95484 2.5376 4.98723 2.71838ZM5.32974 2.15268C5.39526 2.18255 5.46051 2.21288 5.52586 2.24311C5.30068 2.21766 5.0764 2.18264 4.85249 2.14347C5.01151 2.14997 5.17053 2.15322 5.32974 2.15268ZM1.68646 0.765964C1.68691 0.772552 1.688 0.77869 1.68962 0.784917C1.66417 0.784917 1.63872 0.784557 1.61327 0.784557C1.6139 0.779503 1.61462 0.774358 1.61534 0.769304C1.63926 0.767679 1.66273 0.766866 1.68646 0.765964ZM1.33963 3.30438C1.36535 3.00204 1.39368 2.69987 1.42455 2.39807C2.8693 2.81838 4.43246 2.9626 5.92883 2.90529C6.25464 2.97758 6.57837 3.05872 6.89975 3.15014C5.14274 3.21214 3.40801 2.73101 1.64928 2.73291C1.54179 2.733 1.51282 2.90402 1.62338 2.9246C3.95331 3.35898 6.46014 3.26656 8.67067 4.20175C8.1196 4.20644 7.57231 4.11538 7.02927 4.01629C6.3392 3.89038 5.65888 3.79291 4.96079 3.72432C4.18941 3.6486 3.41992 3.55501 2.64836 3.48055C2.46461 3.46286 2.27698 3.45456 2.08853 3.44626C1.83962 3.38759 1.58989 3.33597 1.33963 3.30438ZM4.8246 3.90582C5.5902 3.9847 6.33866 4.08794 7.09587 4.22612C7.74983 4.34543 8.41481 4.44624 9.08014 4.37594C9.1666 4.36682 9.22599 4.24074 9.12942 4.19408C8.2353 3.76178 7.2891 3.51575 6.32215 3.34887C6.69479 3.35853 7.06816 3.34905 7.44289 3.30962C7.48702 3.30501 7.51681 3.27749 7.53007 3.24454C8.65506 3.84914 9.74927 4.51141 10.8058 5.22891C10.0318 5.08279 9.28113 4.83631 8.51381 4.65879C7.63657 4.45581 6.74362 4.31105 5.85645 4.15997C5.08398 4.02838 4.31116 3.89977 3.53978 3.76223C3.9682 3.80997 4.39636 3.86168 4.8246 3.90582ZM6.34417 2.80132C6.34615 2.76098 6.32431 2.71793 6.27675 2.69825C6.03704 2.59943 5.79363 2.51513 5.54788 2.43986C5.70338 2.45728 5.85951 2.46865 6.01628 2.47334C6.36158 2.63923 6.70391 2.81125 7.04407 2.98769C6.81203 2.92009 6.57864 2.85854 6.34417 2.80132ZM7.2363 27.941C4.39744 23.9609 2.59538 19.3382 1.75018 14.5349C1.73023 14.4216 1.71336 14.3078 1.69449 14.1942C4.77496 12.9482 7.72123 11.3733 10.464 9.49708C11.4948 8.79186 12.5283 8.05089 13.4721 7.22374C13.5819 7.31399 13.6919 7.40379 13.8005 7.49539C16.3123 9.6127 18.5083 12.0907 20.2992 14.8369C19.9614 15.0388 19.5883 15.33 19.619 15.7167C19.6289 15.8413 19.8241 15.8422 19.8142 15.7167C19.7902 15.4142 20.0914 15.1726 20.401 14.9921C20.6365 15.3577 20.8627 15.7292 21.0836 16.104C20.8199 16.2491 20.5723 16.4135 20.3632 16.6235C20.2744 16.7128 20.4123 16.8508 20.5012 16.7615C20.6934 16.5684 20.942 16.4226 21.1945 16.2923C21.6906 17.1468 22.1505 18.023 22.5674 18.921C23.236 20.3609 23.7943 21.8458 24.255 23.3605C23.8772 23.6783 23.3901 23.8696 22.9269 24.0175C22.7403 24.077 22.5487 24.1285 22.3555 24.176C22.2138 23.9897 22.0747 23.8016 21.9479 23.6045C21.88 23.4991 21.711 23.5968 21.7794 23.703C21.895 23.8828 22.0213 24.0548 22.1499 24.225C21.9273 24.274 21.7031 24.3129 21.4791 24.3434C21.4447 24.304 21.4117 24.265 21.38 24.2292C21.3013 24.1402 21.2277 24.0471 21.1618 23.9484C21.1391 23.9145 21.1192 23.879 21.1004 23.8429C21.0725 23.7893 21.0989 23.788 21.0672 23.803C21.1808 23.749 21.0817 23.5807 20.9687 23.6345C20.7508 23.7383 20.9787 24.0875 21.2383 24.3747C21.2305 24.3755 21.2227 24.377 21.2149 24.3778C20.5343 24.447 18.5624 24.479 19.1501 25.6977C19.3347 26.0807 19.5441 26.5332 19.81 26.9328C19.7527 26.9843 19.6979 27.0388 19.6478 27.0979C19.5669 27.1933 19.7043 27.332 19.7858 27.2359C19.8287 27.1851 19.8751 27.1387 19.9232 27.0944C20.1296 27.3746 20.369 27.617 20.6535 27.7749C20.5178 27.9432 20.3768 28.107 20.2333 28.2689C20.1502 28.3627 20.2878 28.5013 20.3713 28.4069C20.5295 28.2282 20.6846 28.0469 20.8332 27.8605C21.0146 27.933 21.2128 27.9723 21.4312 27.9669C22.2034 27.9477 22.9533 27.584 23.6616 27.3139C24.1313 27.1349 24.6742 27.0549 25.1319 26.829C25.2808 27.5611 25.4076 28.2978 25.5158 29.0374C22.6503 30.7462 19.7848 32.455 16.9193 34.1638C16.2222 34.5795 15.5252 34.9952 14.8281 35.4109C14.6441 35.2842 14.4613 35.1568 14.2811 35.0286C11.5621 33.0943 9.17563 30.6599 7.2363 27.941ZM15.2233 35.6783C18.0854 33.9716 20.9474 32.2648 23.8095 30.558C24.4003 30.2057 24.9912 29.8533 25.582 29.501C25.5993 29.6295 25.615 29.7584 25.6311 29.8871C24.5939 30.3734 23.7012 31.1095 22.7249 31.7012C22.6175 31.7664 22.7155 31.9352 22.8234 31.8697C23.7767 31.2918 24.6506 30.5765 25.6569 30.0903C25.6896 30.3607 25.7196 30.6314 25.7471 30.9023C25.7373 30.9085 25.728 30.9151 25.7175 30.9206C25.6756 30.9418 25.6631 30.9785 25.6697 31.0132C25.5736 31.0783 25.4525 31.1319 25.3779 31.177C25.2343 31.2635 25.0881 31.3455 24.9416 31.427C24.6451 31.592 24.342 31.745 24.0376 31.895C23.4338 32.1926 22.8178 32.4652 22.2043 32.7421C22.0898 32.7938 22.1891 32.962 22.3029 32.9106C22.9553 32.616 23.6086 32.3234 24.2508 32.007C24.5925 31.8387 24.9287 31.6598 25.26 31.4719C25.4048 31.3898 25.6143 31.3011 25.7753 31.1847C25.7903 31.3424 25.8037 31.5001 25.817 31.6579C24.2584 32.5874 22.6997 33.5169 21.1411 34.4463C19.8143 35.2376 18.4874 36.0288 17.1606 36.82C16.4929 36.4863 15.8473 36.094 15.2233 35.6783ZM16.0428 42.6648C16.2437 42.5248 16.4813 42.4093 16.6678 42.3015C17.0129 42.1019 17.3726 41.9282 17.7364 41.7654C18.447 41.4471 19.189 41.1987 19.9378 40.9876C20.0587 40.9535 20.0073 40.7652 19.8859 40.7994C19.1189 41.0156 18.368 41.2776 17.6378 41.5969C17.2724 41.7566 16.9167 41.9375 16.5692 42.133C16.3807 42.2391 16.145 42.3559 15.9418 42.4955C15.8176 42.2874 15.6935 42.0792 15.5693 41.871C17.2021 41.0549 18.8926 40.3737 20.6533 39.8816C20.7743 39.8478 20.7229 39.6595 20.6014 39.6935C18.8241 40.1902 17.1172 40.879 15.4692 41.7032C15.2386 41.3165 15.0081 40.93 14.7775 40.5434C14.9584 40.4808 15.1373 40.4089 15.3155 40.35C15.7496 40.2069 16.1839 40.0645 16.6181 39.9219C17.4436 39.6509 18.2687 39.3788 19.0919 39.1009C19.2105 39.0609 19.1596 38.8724 19.04 38.9127C18.2169 39.1906 17.3917 39.4626 16.5662 39.7337C16.1754 39.8621 15.7845 39.9903 15.3938 40.119C15.1577 40.1967 14.9187 40.2963 14.6768 40.3745C14.5331 40.1334 14.3894 39.8925 14.2456 39.6514C16.8875 38.0759 19.5295 36.5004 22.1714 34.9248C24.6301 33.4586 27.0889 31.9923 29.5477 30.5261C30.5165 32.1507 31.4854 33.7754 32.4542 35.4C29.8123 36.9755 27.1703 38.5511 24.5284 40.1266C22.0697 41.5928 19.611 43.059 17.1522 44.5253C16.7825 43.9052 16.4126 43.285 16.0428 42.6648ZM19.9906 46.3984C19.7221 46.2108 19.4535 46.0232 19.185 45.8354C19.3737 45.7531 19.5717 45.6958 19.7426 45.6716C19.8667 45.654 19.8137 45.466 19.6907 45.4835C19.4783 45.5135 19.2279 45.5918 18.999 45.7055C18.8916 45.6304 18.7841 45.5553 18.6767 45.4803C18.9578 45.2705 19.4263 45.1728 19.6776 45.0862C19.7958 45.0454 19.745 44.8568 19.6257 44.898C19.306 45.0082 18.8186 45.1191 18.5177 45.3692C18.3723 45.2676 18.2269 45.166 18.0814 45.0643C18.629 44.7377 19.1767 44.4112 19.7243 44.0846C19.813 44.8559 19.9018 45.6271 19.9906 46.3984Z" fill="black"/>
<path d="M18.2229 18.5503C18.4494 17.0912 18.1363 15.5815 17.3926 14.3125C17.3847 14.299 17.3746 14.2874 17.3657 14.2749C17.3609 14.264 17.3586 14.2543 17.3514 14.2424C15.6565 11.4489 12.0016 10.1838 8.91651 11.1959C5.84497 12.2036 4.01648 15.4109 4.5967 18.5623C5.20193 21.8492 8.36832 24.0529 11.6079 24.0827C14.8563 24.1125 17.7214 21.7804 18.2229 18.5503ZM16.2567 20.5332C16.2554 20.5302 16.254 20.5272 16.2527 20.5243C16.2549 20.5258 16.2571 20.5269 16.2593 20.5284C16.2584 20.53 16.2576 20.5315 16.2567 20.5332ZM7.14162 13.8622C7.10218 13.8461 7.06274 13.83 7.0233 13.8139C7.04658 13.7835 7.05389 13.741 7.0316 13.7057C7.0261 13.6971 7.02131 13.6882 7.01599 13.6795C7.05443 13.6312 7.0946 13.5843 7.13449 13.5371C7.1686 13.5331 7.20299 13.5302 7.2381 13.5306C7.3112 13.5315 7.36093 13.4468 7.32239 13.3838C7.31499 13.3717 7.30858 13.3594 7.30163 13.3473C7.33864 13.307 7.3751 13.2661 7.41318 13.2267C7.48313 13.2297 7.55298 13.2349 7.62275 13.2491C7.71002 13.2667 7.79874 13.1538 7.71769 13.086C7.71535 13.084 7.713 13.0822 7.71065 13.0802C7.79323 13.088 7.87554 13.0993 7.95785 13.1142C7.65849 13.3352 7.3853 13.5861 7.14162 13.8622ZM6.79207 14.3029C6.76635 14.2262 6.74677 14.1501 6.72628 14.0749C6.77583 14.0018 6.82655 13.9296 6.87917 13.8585C6.86599 13.9058 6.88188 13.9653 6.93955 13.989C6.96292 13.9986 6.9862 14.0081 7.00958 14.0176C6.93386 14.1103 6.86139 14.2055 6.79207 14.3029ZM6.69875 14.4395C6.65146 14.5105 6.60607 14.5827 6.56211 14.6559C6.52746 14.6001 6.49858 14.5416 6.47249 14.4817C6.48043 14.468 6.48793 14.4541 6.49587 14.4404C6.56338 14.4369 6.63079 14.4334 6.69875 14.4395ZM6.12331 15.5649C6.08748 15.5266 6.05264 15.4873 6.01781 15.4479C6.01871 15.4454 6.01961 15.4429 6.02051 15.4404C6.07602 15.4256 6.13161 15.4113 6.18847 15.4007C6.16609 15.4552 6.14398 15.5097 6.12331 15.5649ZM5.64886 17.0261C5.72936 17.0203 5.77719 16.9326 5.71654 16.8626C5.70174 16.8455 5.6883 16.8274 5.6744 16.8097C5.68216 16.7542 5.69101 16.6989 5.70012 16.6437C5.75021 16.6213 5.78099 16.553 5.74669 16.5049C5.74073 16.4965 5.7355 16.4878 5.72963 16.4794C5.73433 16.455 5.73947 16.4305 5.74443 16.4061C5.78884 16.4089 5.83378 16.4149 5.87918 16.4235C5.86645 16.4871 5.85337 16.5506 5.8429 16.6148C5.80472 16.8487 5.78559 17.083 5.78062 17.3168C5.73035 17.2689 5.6827 17.2188 5.63442 17.1693C5.63839 17.1214 5.64389 17.0738 5.64886 17.0261ZM5.66862 17.8326C5.71321 17.8492 5.75707 17.8674 5.80057 17.8869C5.80301 17.9143 5.80553 17.9416 5.80842 17.9689C5.76059 17.9244 5.71375 17.8792 5.66862 17.8326ZM5.73017 17.4883C5.74849 17.4859 5.7651 17.4781 5.77828 17.4655C5.77846 17.4902 5.77963 17.5146 5.78026 17.5393C5.76339 17.5224 5.74741 17.5047 5.73017 17.4883ZM5.79407 16.1838C5.80246 16.1953 5.81212 16.2062 5.81979 16.2182C5.80869 16.2172 5.7975 16.2158 5.78631 16.2149C5.78875 16.2045 5.79154 16.1942 5.79407 16.1838ZM5.99551 15.9508C5.95887 15.9117 5.92385 15.8713 5.89064 15.8293C5.89416 15.8176 5.8975 15.8059 5.90111 15.7942C5.94633 15.7997 5.99136 15.8064 6.03622 15.8145C6.02187 15.8597 6.00887 15.9053 5.99551 15.9508ZM6.2567 15.2382C6.25544 15.2366 6.25463 15.2346 6.25318 15.2331C6.21807 15.1936 6.18621 15.1525 6.15508 15.111C6.16988 15.0772 6.1854 15.0436 6.20075 15.01C6.22647 15.0087 6.25228 15.0072 6.27818 15.0076C6.33991 15.0084 6.39145 14.9444 6.37231 14.8841C6.36879 14.8723 6.36428 14.861 6.36058 14.8493C6.391 14.8495 6.42168 14.8483 6.45228 14.8474C6.38242 14.9752 6.31636 15.1051 6.2567 15.2382ZM6.37944 17.0598C6.42195 16.5006 6.55841 15.9617 6.77231 15.4594C6.92528 15.5307 7.09595 15.5867 7.19026 15.6328C7.81192 15.9368 8.42075 16.2593 9.0536 16.5415C10.4918 17.1829 11.9731 17.7217 13.422 18.3381C13.5363 18.3867 13.6359 18.2187 13.5204 18.1696C12.1921 17.6045 10.839 17.1 9.51253 16.5306C8.82896 16.2372 8.1556 15.9208 7.49775 15.5733C7.35759 15.4993 7.21635 15.4291 7.07393 15.3596C7.04063 15.3433 6.94974 15.302 6.86139 15.2621C7.03783 14.8915 7.25732 14.5431 7.51364 14.2239C9.57318 15.0666 11.6363 15.901 13.6821 16.7766C13.7965 16.8255 13.896 16.6575 13.7806 16.6081C11.7452 15.7369 9.69294 14.9061 7.64387 14.0677C7.89314 13.7804 8.17301 13.5195 8.4786 13.2908C8.58059 13.4275 8.81687 13.5194 8.93582 13.5811C9.38265 13.813 9.84835 14.0105 10.311 14.2082C11.1338 14.5598 11.9676 14.8837 12.7946 15.225C12.911 15.273 12.9611 15.0841 12.8465 15.0369C12.1204 14.7372 11.3886 14.4517 10.6643 14.1476C10.2173 13.96 9.77191 13.7675 9.33356 13.5601C9.17688 13.4859 9.02156 13.4084 8.86966 13.3247C8.81533 13.2947 8.76227 13.2626 8.71019 13.2289C8.68898 13.2152 8.66172 13.1856 8.64358 13.1722C9.10883 12.8509 9.62742 12.6016 10.1835 12.4446C12.3188 11.8415 14.5367 12.8766 15.6671 14.7336C16.4812 16.1275 16.6251 17.78 16.0708 19.2953C15.5044 20.8439 14.1667 22.0373 12.5888 22.483C11.0112 22.9285 9.33924 22.483 8.11642 21.4167C6.87817 20.3371 6.25589 18.6845 6.37944 17.0598ZM16.8799 19.0954C16.8393 19.0552 16.8009 19.0132 16.7645 18.9694C16.7725 18.9405 16.7792 18.9113 16.7868 18.8822C16.8525 18.874 16.8881 18.7938 16.8556 18.7369C16.848 18.7236 16.8402 18.7106 16.8327 18.6975C16.8374 18.6763 16.8413 18.655 16.8458 18.6338C16.8634 18.6353 16.8809 18.6368 16.8986 18.6382C16.9591 18.643 17.0017 18.581 16.9943 18.5257C17.0021 18.5277 17.0099 18.5297 17.0178 18.5316C16.9806 18.7216 16.9345 18.9096 16.8799 19.0954ZM16.3598 20.3496C16.3219 20.3021 16.2839 20.2547 16.2439 20.2099C16.2644 20.1742 16.2847 20.1386 16.3043 20.1026C16.3176 20.1114 16.3313 20.1195 16.3442 20.129C16.3515 20.1344 16.3591 20.1374 16.3667 20.14C16.387 20.1677 16.4071 20.1957 16.4265 20.2248C16.4049 20.2667 16.3826 20.3082 16.3598 20.3496ZM16.6998 15.3675C16.697 15.3677 16.6943 15.3679 16.6915 15.3681C16.5929 15.3748 16.5606 15.4943 16.6422 15.5499C16.741 15.6174 16.8422 15.6812 16.9424 15.7464C16.9425 15.7469 16.9427 15.7473 16.9428 15.7479C16.874 15.7548 16.8052 15.7605 16.7355 15.7589C16.7193 15.7585 16.7057 15.7626 16.6934 15.7683C16.6278 15.5699 16.5505 15.3741 16.4608 15.1821C16.5504 15.2343 16.6274 15.2979 16.6998 15.3675ZM17.0623 18.1664C16.9838 18.1599 16.936 18.2671 16.9857 18.3238C16.9592 18.3168 16.9329 18.3086 16.9065 18.3009C16.9215 18.2013 16.9344 18.1013 16.9438 18.0008C16.9455 18.0024 16.9461 18.0042 16.9478 18.0059C16.9958 18.0496 17.0393 18.0974 17.0821 18.1456C17.0811 18.153 17.0798 18.1603 17.0789 18.1677C17.0733 18.1674 17.0679 18.1669 17.0623 18.1664ZM17.1336 17.0874C17.0765 17.0193 17.0264 16.9533 16.9712 16.892C17.042 16.8745 17.0828 16.7876 17.0229 16.7292C16.9717 16.6792 16.9306 16.6248 16.8916 16.5691C16.8901 16.5599 16.8886 16.5507 16.887 16.5415C16.909 16.5449 16.9311 16.5483 16.9546 16.5523C17.0211 16.5635 17.1021 16.5091 17.0746 16.4322C17.0464 16.3532 17.0152 16.2867 16.9757 16.221C16.9972 16.2139 17.018 16.205 17.0391 16.1966C17.0919 16.4924 17.1233 16.7899 17.1336 17.0874ZM16.9689 17.4655C16.9763 17.475 16.9838 17.4844 16.9912 17.4939C16.9836 17.4961 16.9761 17.4989 16.9683 17.5011C16.9684 17.4893 16.9689 17.4773 16.9689 17.4655ZM16.96 17.7772C16.9794 17.7988 16.9984 17.8208 17.0174 17.8426C16.9937 17.8444 16.9714 17.8535 16.9539 17.8683C16.956 17.8379 16.9584 17.8076 16.96 17.7772ZM17.0788 17.2921C17.0846 17.2918 17.0904 17.2914 17.0962 17.2912C17.1121 17.2906 17.1256 17.2861 17.138 17.2801C17.1381 17.3087 17.1373 17.3372 17.1371 17.3658C17.1176 17.3412 17.0981 17.3167 17.0788 17.2921ZM16.841 16.0601C16.8262 16.0644 16.8111 16.0686 16.7966 16.0732C16.7927 16.0745 16.7895 16.0778 16.7857 16.0796C16.7783 16.0517 16.7714 16.0238 16.7635 15.996C16.79 16.0165 16.8156 16.0382 16.841 16.0601ZM17.1155 17.6591C17.1196 17.6578 17.1237 17.6566 17.1277 17.6552C17.1274 17.6608 17.1271 17.6664 17.1268 17.672C17.1231 17.6677 17.1193 17.6634 17.1155 17.6591ZM16.6114 14.8916C16.6262 14.8874 16.6377 14.879 16.6472 14.8687C16.6557 14.8889 16.6652 14.909 16.6735 14.9293C16.6527 14.9168 16.6321 14.9042 16.6114 14.8916ZM16.2297 14.6857C16.2175 14.6846 16.2063 14.686 16.1962 14.6894C16.1731 14.6525 16.1494 14.6162 16.1255 14.58C16.1681 14.6167 16.2115 14.6526 16.2562 14.6869C16.2474 14.6862 16.2385 14.6864 16.2297 14.6857ZM16.4139 15.0005C16.4031 15.01 16.3953 15.0224 16.3894 15.0358C16.3774 15.012 16.3659 14.9881 16.3535 14.9645C16.3737 14.9764 16.3938 14.9884 16.4139 15.0005ZM16.121 20.7503C16.1119 20.7343 16.1027 20.7182 16.0937 20.7021C16.1086 20.709 16.1234 20.7157 16.1382 20.723C16.1323 20.732 16.1269 20.7413 16.121 20.7503ZM16.6559 19.7337C16.6249 19.6815 16.5968 19.6277 16.5698 19.5733C16.5933 19.5834 16.6173 19.5936 16.6438 19.6049C16.6643 19.6139 16.6846 19.615 16.7037 19.6122C16.6878 19.6527 16.6725 19.6935 16.6559 19.7337ZM16.762 19.4517C16.7206 19.4071 16.6875 19.3585 16.6562 19.3089C16.6603 19.2974 16.6645 19.2861 16.6685 19.2746C16.7179 19.2798 16.7673 19.2863 16.8171 19.2976C16.7998 19.35 16.7824 19.4023 16.7637 19.4543C16.763 19.4535 16.7628 19.4526 16.762 19.4517ZM16.451 14.4459C16.4882 14.5188 16.5248 14.5918 16.5589 14.6656C16.4348 14.5804 16.316 14.4916 16.2062 14.3913C16.2827 14.4005 16.3584 14.4185 16.4379 14.4444C16.4426 14.446 16.4465 14.4451 16.451 14.4459ZM12.7591 11.5139C14.2387 11.8096 15.4764 12.8514 16.2631 14.1042C16.2713 14.1177 16.2795 14.1313 16.2877 14.1448C16.3007 14.1672 16.3125 14.1899 16.3252 14.2124C16.2118 14.1883 16.1032 14.181 15.9735 14.1962C15.9348 14.2008 15.9059 14.2216 15.8902 14.2489C14.1216 11.961 10.7376 11.3352 8.25433 12.9095C8.22816 12.9261 8.20334 12.9443 8.17752 12.9613C8.17229 12.9594 8.16859 12.9563 8.16245 12.955C8.0296 12.9289 7.89946 12.904 7.76832 12.889C7.94648 12.7316 8.13348 12.5826 8.33131 12.4453C9.61334 11.556 11.23 11.2083 12.7591 11.5139ZM14.441 22.482C13.159 23.3713 11.5423 23.7191 10.0132 23.4135C8.53366 23.1177 7.29586 22.0759 6.50931 20.8231C6.04831 20.089 5.7744 19.2872 5.66709 18.4713C5.74687 18.4559 5.77665 18.347 5.69877 18.2928C5.67882 18.2789 5.66059 18.2641 5.64145 18.2498C5.63902 18.2238 5.6373 18.1978 5.63523 18.1718C5.7021 18.1959 5.76889 18.2208 5.83577 18.2468C5.83929 18.2482 5.84245 18.2477 5.84588 18.2486C6.00337 19.2244 6.43224 20.1523 7.07032 20.922C8.85595 23.0759 12.1888 23.4946 14.5181 22.0179C14.8347 21.8172 15.1216 21.5866 15.3792 21.3328C15.4356 21.3551 15.5165 21.3266 15.5205 21.2464C15.5216 21.2238 15.5233 21.2033 15.525 21.1843C15.5322 21.1767 15.5391 21.1687 15.5463 21.161C15.6078 21.203 15.6695 21.2448 15.732 21.2852C15.3681 21.7332 14.9371 22.1378 14.441 22.482Z" fill="black"/>
<path d="M9.86712 19.1285C11.4789 19.786 13.2177 20.1706 14.7231 21.0703C14.8314 21.135 14.9295 20.9663 14.8216 20.9018C13.3016 19.9934 11.5464 19.6041 9.91902 18.9403C9.80241 18.8927 9.75214 19.0816 9.86712 19.1285Z" fill="black"/>
<path d="M14.0175 21.6076C12.8348 21.3726 11.7822 20.7318 10.7229 20.1861C10.6111 20.1286 10.5124 20.297 10.6243 20.3546C11.6976 20.9074 12.7669 21.5577 13.9655 21.7957C14.0885 21.8202 14.1409 21.6321 14.0175 21.6076Z" fill="black"/>
</svg>
